HIERARCHY
ROOT Hips
{
	OFFSET 0.000000 0.000000 0.000000
	CHANNELS 6 Xposition Yposition Zposition Zrotation Yrotation Xrotation 
	JOINT LHipJoint
	{
		OFFSET 0.000000 0.000000 0.000000
		CHANNELS 3 Zrotation Yrotation Xrotation
		JOINT LeftUpLeg
		{
			OFFSET 1.363060 -1.794630 0.839290
			CHANNELS 3 Zrotation Yrotation Xrotation
			JOINT LeftLeg
			{
				OFFSET 2.448110 -6.726130 0.000000
				CHANNELS 3 Zrotation Yrotation Xrotation
				JOINT LeftFoot
				{
					OFFSET 2.562200 -7.039590 0.000000
					CHANNELS 3 Zrotation Yrotation Xrotation
					JOINT LeftToeBase
					{
						OFFSET 0.157640 -0.433110 2.322550
						CHANNELS 3 Zrotation Yrotation Xrotation
						End Site
						{
							OFFSET 0.000000 0.000000 0.000000
						}
					}
				}
			}
		}
	}
	JOINT RHipJoint
	{
		OFFSET 0.000000 0.000000 0.000000
		CHANNELS 3 Zrotation Yrotation Xrotation
		JOINT RightUpLeg
		{
			OFFSET -1.305520 -1.794630 0.839290
			CHANNELS 3 Zrotation Yrotation Xrotation
			JOINT RightLeg
			{
				OFFSET -2.542530 -6.985550 0.000000
				CHANNELS 3 Zrotation Yrotation Xrotation
				JOINT RightFoot
				{
					OFFSET -2.568260 -7.056230 0.000000
					CHANNELS 3 Zrotation Yrotation Xrotation
					JOINT RightToeBase
					{
						OFFSET -0.164730 -0.452590 2.363150
						CHANNELS 3 Zrotation Yrotation Xrotation
						End Site
						{
							OFFSET 0.000000 0.000000 0.000000
						}
					}
				}
			}
		}
	}
}
MOTION
Frames: 19
Frame Time: 0.008333
3.298045 16.589703 -0.028376 126.189629 -84.873636 -101.901252 -8.976618 0.633745 1.699258 -9.626517 5.340197 -40.970451 -2.764451 0.258885 24.883896 1.863679 8.693786 -9.071589 -0.000200 -0.000000 -45.452000 11.032875 0.928709 3.668401 -4.292229 -0.681210 -43.653139 0.991538 -1.892034 35.368608 -1.887488 -5.384601 -12.888388 0.175700 -0.000000 -67.267000
3.289365 16.594163 -0.094066 127.002063 -84.764612 -103.270446 -9.031717 0.643743 1.678423 -9.322902 5.598377 -40.168224 -2.719450 0.227166 24.596387 1.866213 8.877444 -8.840900 0.030700 0.000000 -45.418801 11.022026 0.863013 3.626350 -4.086284 -0.569406 -43.092950 0.987142 -1.903296 35.655751 -1.882539 -5.345115 -13.168764 0.221500 0.000000 -67.219200
3.280382 16.599770 -0.161721 128.220498 -84.628283 -105.069123 -9.096770 0.648713 1.654942 -8.984279 5.848790 -39.323134 -2.666841 0.196125 24.334023 1.877709 9.105558 -8.652981 0.054300 -0.000000 -45.411200 11.001355 0.787959 3.582645 -3.867061 -0.436660 -42.475039 0.987567 -1.908525 35.877774 -1.870376 -5.276368 -13.431591 0.264300 -0.000000 -67.188300
3.271525 16.606858 -0.231220 129.818273 -84.460230 -107.267191 -9.173418 0.648403 1.629348 -8.605019 6.076892 -38.446230 -2.603056 0.169225 24.121232 1.899659 9.393137 -8.488609 0.074700 0.000001 -45.512300 10.969081 0.704985 3.536756 -3.635834 -0.277338 -41.798518 0.992344 -1.906826 36.025815 -1.851666 -5.181797 -13.670963 0.302800 -0.000000 -67.175100
3.263025 16.615850 -0.302680 131.818517 -84.249329 -109.883768 -9.263169 0.643502 1.600577 -8.183378 6.278452 -37.546753 -2.525206 0.149800 23.974884 1.932680 9.755192 -8.312290 0.099600 -0.000000 -45.804600 10.923861 0.615145 3.491153 -3.396842 -0.075553 -41.063766 0.999966 -1.897131 36.091888 -1.827446 -5.066734 -13.880111 0.336100 0.000000 -67.173299
3.255187 16.627076 -0.375805 134.123437 -83.994258 -112.811825 -9.367371 0.634435 1.572214 -7.709537 6.424305 -36.644384 -2.427562 0.142398 23.924297 1.978996 10.216291 -8.079052 0.140300 -0.000000 -46.347800 10.864335 0.521298 3.443250 -3.147483 0.169257 -40.270558 1.010101 -1.878682 36.068279 -1.798785 -4.937438 -14.050432 0.363000 0.000000 -67.188200
3.248538 16.640929 -0.450482 136.678089 -83.687991 -115.993275 -9.485919 0.622196 1.545401 -7.180668 6.497917 -35.756755 -2.306068 0.151084 23.990498 2.039505 10.795531 -7.733614 0.211799 0.000000 -47.180000 10.790415 0.426546 3.393040 -2.888911 0.465524 -39.421045 1.021430 -1.850966 35.949673 -1.766868 -4.800852 -14.173443 0.382800 -0.000000 -67.218800
3.243452 16.657723 -0.526387 139.384189 -83.329829 -119.324211 -9.617603 0.607643 1.522412 -6.593634 6.476454 -34.905120 -2.156829 0.179798 24.198937 2.114888 11.507295 -7.221189 0.332300 0.000000 -48.288300 10.702959 0.334550 3.337898 -2.619169 0.812526 -38.515125 1.033335 -1.813898 35.732199 -1.732687 -4.663471 -14.241030 0.395100 -0.000000 -67.267300
3.239688 16.677575 -0.603492 142.190599 -82.911657 -122.742139 -9.758428 0.593155 1.505139 -5.958120 6.355399 -34.117588 -1.979314 0.230676 24.566794 2.204255 12.353292 -6.484573 0.524100 0.000000 -49.676400 10.605564 0.247732 3.282833 -2.343925 1.219376 -37.566676 1.043943 -1.767771 35.418192 -1.697393 -4.531582 -14.246848 0.399401 -0.000000 -67.333000
3.238095 16.700571 -0.681161 144.942128 -82.445669 -126.094122 -9.904066 0.577097 1.494876 -5.274649 6.110459 -33.418453 -1.772580 0.306025 25.128377 2.306650 13.322537 -5.495365 0.806300 0.000000 -51.180000 10.501251 0.170592 3.219747 -2.058589 1.666443 -36.569870 1.053954 -1.713845 35.007674 -1.661281 -4.408691 -14.186586 0.396000 -0.000001 -67.420100
3.238184 16.726465 -0.759511 147.579933 -81.927312 -129.309679 -10.046253 0.560631 1.492995 -4.567754 5.752668 -32.844042 -1.541237 0.404230 25.899949 2.419179 14.388815 -4.223596 1.200300 -0.000000 -52.782300 10.397477 0.104096 3.157408 -1.775973 2.156192 -35.550720 1.061403 -1.653945 34.512633 -1.624936 -4.297384 -14.058498 0.384799 0.000000 -67.530600
3.240322 16.755043 -0.837771 150.000057 -81.375974 -132.286896 -10.180513 0.539538 1.498214 -3.845515 5.280187 -32.418321 -1.290445 0.523973 26.916260 2.537648 15.503210 -2.692497 1.710799 -0.000000 -54.223500 10.297147 0.049878 3.088875 -1.493347 2.663781 -34.504287 1.067634 -1.589917 33.938176 -1.588292 -4.197996 -13.865020 0.366600 0.000000 -67.662899
3.244482 16.785833 -0.915730 152.136040 -80.801841 -134.957747 -10.300189 0.510920 1.509600 -3.132147 4.710356 -32.171509 -1.029095 0.661184 28.200680 2.656915 16.608550 -0.941071 2.330700 -0.000000 -55.361000 10.205864 0.007765 3.016784 -1.220742 3.173348 -33.447584 1.072334 -1.524219 33.299136 -1.551204 -4.108638 -13.611362 0.341900 -0.000000 -67.816801
3.250376 16.818260 -0.993048 153.928977 -80.219935 -137.259874 -10.400108 0.471331 1.525935 -2.452347 4.062799 -32.129765 -0.767216 0.811002 29.774127 2.771417 17.642432 0.960784 3.033100 -0.000000 -56.061000 10.128362 -0.023348 2.942583 -0.969387 3.663108 -32.396468 1.075726 -1.459243 32.611616 -1.513113 -4.024293 -13.306684 0.311600 0.000000 -67.990400
3.257832 16.851736 -1.069336 155.345039 -79.646930 -139.160083 -10.477918 0.417507 1.544576 -1.828582 3.363103 -32.312529 -0.515098 0.969481 31.654731 2.875158 18.541193 2.913748 3.769000 -0.000000 -56.197100 10.067179 -0.045186 2.866242 -0.747681 4.110327 -31.361990 1.078222 -1.396823 31.890974 -1.473529 -3.939884 -12.961663 0.277000 0.000000 -68.179199
3.266827 16.885644 -1.144265 156.358050 -79.098844 -140.635757 -10.532495 0.347387 1.562233 -1.284850 2.638696 -32.734921 -0.281474 1.134015 33.851988 2.962780 19.252289 4.807661 4.476599 0.000000 -55.725100 10.024668 -0.059344 2.788273 -0.566738 4.493111 -30.357568 1.079979 -1.338657 31.154191 -1.431817 -3.848653 -12.589379 0.239400 0.000000 -68.378800
3.277098 16.919411 -1.217342 156.981388 -78.592029 -141.702081 -10.566405 0.260597 1.574229 -0.837577 1.921159 -33.403335 -0.072154 1.305000 36.369537 3.029254 19.732979 6.525660 5.087300 -0.000000 -54.645599 10.000224 -0.067970 2.707541 -0.429025 4.793689 -29.386999 1.081535 -1.285235 30.413010 -1.387941 -3.746975 -12.202440 0.200500 -0.000001 -68.581800
3.288212 16.952536 -1.288839 157.175570 -78.133886 -142.316597 -10.578036 0.158603 1.578624 -0.520450 1.233502 -34.325070 0.112346 1.481573 39.188958 3.074420 19.988164 7.989687 5.559800 0.000001 -53.172200 9.999588 -0.072930 2.630082 -0.357353 4.995757 -28.477572 1.081717 -1.238482 29.688758 -1.340821 -3.624458 -11.815479 0.161700 -0.000000 -68.786700
3.300369 16.984594 -1.357865 157.021535 -77.738857 -142.569893 -10.575957 0.042077 1.568249 -0.326806 0.607598 -35.488352 0.274616 1.669748 42.299940 3.095313 20.005819 9.109597 5.848600 -0.000001 -51.394200 10.015864 -0.075409 2.549948 -0.333046 5.095773 -27.611823 1.081698 -1.196842 28.981556 -1.291993 -3.487306 -11.436190 0.124600 0.000000 -68.980900
